<svg fill="none" height="568" viewBox="0 0 568 568" width="568" xmlns="http://www.w3.org/2000/svg">
    <path
        d="M510.992 544H32C27.5817 544 24 540.418 24 536V57.0081C10.1982 60.5605 0 73.0893 0 88V536C0 553.673 14.3269 568 32 568H480C494.911 568 507.44 557.802 510.992 544Z"
        fill="black" />
    <path clip-rule="evenodd" d="M536 24H88C83.5817 24 80 27.5817 80 32V480C80 484.418 83.5817 488 88 488H536C540.418 488 544 484.418 544 480V32C544 27.5817 540.418 24 536 24ZM88 0C70.3269 0 56 14.3269 56 32V480C56 497.673 70.3269 512 88 512H536C553.673 512 568 497.673 568 480V32C568 14.3269 553.673 0 536 0H88Z"
        fill="black"
        fill-rule="evenodd" />
    <path clip-rule="evenodd" d="M112 256C112 366.457 201.543 456 312 456C422.457 456 512 366.457 512 256C512 145.543 422.457 56 312 56C201.543 56 112 145.543 112 256ZM344.475 203.15C342.62 200.187 340.113 197.643 336.953 195.517C332.191 192.272 326.54 190.199 320 189.297V244.173L325.784 245.678C331.354 247.043 337.066 248.891 342.921 251.223C348.775 253.555 354.203 256.626 359.205 260.436C364.206 264.246 368.242 268.967 371.311 274.597C374.437 280.227 376 286.967 376 294.815C376 304.711 373.442 313.498 368.327 321.175C363.268 328.853 355.908 334.91 346.246 339.346C338.732 342.816 329.983 344.929 320 345.685V354C320 358.418 316.418 362 312 362C307.582 362 304 358.418 304 354V345.768C294.001 345.121 285.149 343.122 277.444 339.773C267.895 335.621 260.421 329.735 255.022 322.114C252.156 318.039 249.971 313.564 248.466 308.688C246.204 301.361 252.511 294.815 260.175 294.815C267.137 294.815 272.49 300.487 275.861 306.582C276.652 308.013 277.577 309.351 278.638 310.597C282.275 314.749 286.907 317.848 292.534 319.896C296.139 321.158 299.961 322.02 304 322.482V264.441L296.2 262.313C282.218 258.502 271.135 252.9 262.95 245.507C254.823 238.114 250.759 228.332 250.759 216.161C250.759 206.095 253.487 197.308 258.943 189.801C264.4 182.294 271.789 176.464 281.11 172.313C288.074 169.169 295.704 167.199 304 166.404V158C304 153.582 307.582 150 312 150C316.418 150 320 153.582 320 158V166.281C328.845 166.976 336.826 168.958 343.944 172.227C353.038 176.379 360.199 182.095 365.428 189.374C368.027 192.964 370.008 196.82 371.371 200.943C373.708 208.011 367.484 214.284 360.043 214.284C353.302 214.284 348.053 208.866 344.475 203.15ZM281.28 201.403C284.179 197.479 288.243 194.408 293.472 192.19C296.629 190.816 300.138 189.857 304 189.313V239.939C302.068 239.361 300.093 238.714 298.076 238C294.381 236.635 290.914 234.957 287.675 232.967C284.492 230.919 281.906 228.389 279.916 225.374C277.984 222.36 277.018 218.777 277.018 214.626C277.018 209.678 278.439 205.27 281.28 201.403ZM344.882 309.488C341.528 313.697 336.924 316.995 331.07 319.384C327.664 320.754 323.974 321.721 320 322.286V268.817C324.991 270.255 329.533 271.869 333.628 273.659C338.629 275.82 342.58 278.55 345.478 281.848C348.434 285.147 349.912 289.384 349.912 294.559C349.912 300.246 348.235 305.223 344.882 309.488ZM312 80C214.798 80 136 158.798 136 256C136 353.202 214.798 432 312 432C409.202 432 488 353.202 488 256C488 158.798 409.202 80 312 80ZM312 416C223.634 416 152 344.366 152 256C152 167.634 223.634 96 312 96C400.366 96 472 167.634 472 256C472 344.366 400.366 416 312 416Z"
        fill="black"
        fill-rule="evenodd" />
</svg>
